<?xml version="1.0" encoding="utf-8"?>
<svg version="1.1" id="Main" xmlns="http://www.w3.org/2000/svg" xmlns:xlink="http://www.w3.org/1999/xlink" x="0px" y="0px"
	 viewBox="0 0 1137 630" style="enable-background:new 0 0 1137 630;" xml:space="preserve">
<style type="text/css">
	.st0{fill-rule:evenodd;clip-rule:evenodd;fill:#1B69CD;}
	.st1{fill-rule:evenodd;clip-rule:evenodd;fill:#0186F5;}
	.st2{fill-rule:evenodd;clip-rule:evenodd;fill:#02A6F8;}
</style>
<g>
	<path class="st0" d="M744.62,309.62c0,0,40.32-43.27,95.92-26.33l89.11,40.32c0,0,8.28,2.95,2.03,11.23L690.86,573.08
		c0,0-33.88,33.88-104.76,15.1l-78.98-22.65c0,0-13.44-2.76-4.42-11.97l0.55-0.74l48.97-49.53c4.6-2.39,7.55,1.29,7.55,1.29
		l16.2,16.39c6.44,5.16,5.71-2.21,5.71-2.21l4.23-47.68c0.55-1.29,1.29-2.39,1.84-3.31L744.62,309.62L744.62,309.62z"/>
	<path class="st1" d="M666.37,120.91c0,0,4.23-3.87,9.94-8.65c13.26-11.41,38.48-29.46,75.3-19.88c1.29,0.37,2.39,0.74,3.68,1.1
		l34.06,11.23c23.75,7.73,47.68,15.65,71.43,23.38c0,0,7.73,2.21,1.29,10.49L563.46,436.84c-5.71,2.95-9.02,2.76-9.02,2.76
		l-48.97,2.95c-8.1,0.18-2.95,5.16-2.95,5.16l21.36,21.36c2.03,2.95,0.92,5.89-0.18,7.73l-33.14,32.77
		c-27.43,27.43-64.99,26.88-103.47,16.57l-78.98-23.01c0,0-15.28-6.26-6.26-15.28l0.55-0.74l266.04-267.51
		c4.42-2.03,7.18,1.47,7.18,1.47l16.2,16.39c6.44,5.16,5.71-2.21,5.71-2.21l4.23-47.68c0.37-0.92,0.74-1.66,1.1-2.39L666.37,120.91
		L666.37,120.91z"/>
	<path class="st2" d="M453.91,66.41c0,0,40.32-43.27,95.92-26.33l89.11,40.32c0,0,8.28,2.95,2.03,11.23l-62.23,61.68
		c-5.52,2.76-8.65,2.39-8.65,2.39l-48.97,2.95c-8.1,0.18-2.95,5.16-2.95,5.16l21.36,21.36c1.66,2.58,1.29,4.97,0.37,6.81
		L383.95,346.63c0,0-38.48,38.85-102.73,12.7l-70.7-32.04c0,0-13.44-2.76-4.42-11.97l0.55-0.74L453.91,66.41L453.91,66.41z"/>
</g>
</svg>
