<?xml version="1.0" encoding="utf-8"?>
<svg version="1.1" id="Main" xmlns="http://www.w3.org/2000/svg" xmlns:xlink="http://www.w3.org/1999/xlink" x="0px" y="0px"
	 viewBox="0 0 1920 1080" style="enable-background:new 0 0 1920 1080;" xml:space="preserve">
<style type="text/css">
	.st0{fill:#821A22;}
</style>
<g>
	<path class="st0" d="M443.09,537.4c0-11.2,0.18-22.41-0.09-33.61c-0.11-4.29,1.4-8.16,1.9-12.26c1.35-10.96,2.39-21.96,4.09-32.86
		c7.89-50.54,22.6-99.01,45.5-144.79c58.53-117,148.3-200.84,268.84-251.58c34.9-14.69,71.29-24.48,108.6-30.93
		c16.71-2.89,33.53-4.66,50.43-5.93c2.84-0.21,5.63-1.02,8.47-1.26c3.23-0.28,6.48-0.31,9.72-0.32c12.78-0.03,25.57-0.17,38.35,0.07
		c4.77,0.09,9.55,0.02,14.36,1.14c4.55,1.06,9.42,0.72,14.14,1.15c89.86,8.02,172.14,37.49,246.09,88.99
		c92.59,64.49,158.17,149.99,195.51,256.73c11.02,31.51,18.45,63.91,23.02,96.98c3.88,28.08,5.63,56.28,4.78,84.6
		c-2.19,73.74-18.83,144.02-51.04,210.5c-25.6,52.84-59.25,99.96-101.03,141.19c-70.48,69.56-153.87,115.83-250.53,137.79
		c-32.7,7.43-65.87,11.43-99.39,12.49c-6.87,0.22-13.73,0.62-20.6,0.73c-2.69,0.04-5.4-0.47-8.09-0.73
		c-0.71-0.07-1.52-0.36-2.12-0.13c-4.02,1.52-7.83,0.07-11.78-0.45c-5.96-0.79-12.02-0.81-18.03-1.26
		c-24.81-1.85-49.29-5.88-73.49-11.58c-83.94-19.78-158.42-58.13-222.94-115.26c-83.83-74.23-138.5-166.02-163.27-275.38
		c-4.28-18.9-7.25-38.04-9.06-57.35c-0.53-5.7-1.52-11.35-2.24-17.03c-0.16-1.28-0.11-2.58-0.11-3.87
		C443.08,561.25,443.09,549.33,443.09,537.4z M957.2,36.29c-12.3,0.64-26.95,1.03-41.53,2.23c-30.1,2.48-59.75,7.7-88.87,15.77
		c-95.32,26.42-176.46,76.14-242.38,149.79c-82.47,92.14-125.38,200.47-129.3,324.13c-0.51,15.94,0.17,31.86,1.28,47.77
		c1.1,15.91,2.96,31.72,5.62,47.43c7.19,42.37,19.46,83.22,37.32,122.32C540.13,835,601.52,906.79,683.54,960.61
		c80.97,53.14,170.19,80.34,267.01,82.37c33.53,0.7,66.81-2.14,99.83-8.13c49.19-8.94,96.14-24.6,140.38-47.84
		c106.6-56.01,184.34-139.22,232.8-249.45c25.11-57.12,38.19-117.15,40.51-179.48c0.83-22.25,0.06-44.48-2.11-66.67
		c-2.31-23.61-6.07-46.95-11.78-69.96c-24.38-98.29-73.52-182.25-148.09-250.66C1205.38,82.06,1090.72,37.99,957.2,36.29z"/>
	<path class="st0" d="M959.61,896.54c-26.34-0.29-52.44-2.73-78.24-8.16c-50.2-10.56-95.8-31.34-137.08-61.68
		c-46.75-34.35-83.84-76.94-109.5-129.16c-16.57-33.72-27.77-69.14-33.37-106.33c-3.61-23.96-4.46-48.02-3.02-72.14
		c7.89-131.76,86.39-236.47,184.66-290.33c36.33-19.91,74.85-33.34,115.67-40.17c25.87-4.33,51.96-5.87,78.11-4.31
		c90.35,5.4,168.8,38.77,234,101.79c49.53,47.87,82.49,105.51,98.5,172.65c4.23,17.75,7.07,35.71,8.47,53.93
		c1.25,16.21,1.43,32.44,0.38,48.62c-4.82,74.53-30.25,141.22-77.03,199.55c-52.86,65.92-120.93,107.77-203,126.97
		C1012.38,893.79,986.14,896.67,959.61,896.54z M958.23,884.16c7.18-0.34,14.63-0.71,22.09-1.04c18.11-0.81,36.02-3.28,53.66-7.33
		c75.53-17.35,139.32-54.53,189.71-113.72c62.1-72.94,88.64-157.48,81.34-252.81c-2.02-26.32-7.98-51.83-16.28-76.83
		c-18.72-56.41-50.17-104.55-94.19-144.45c-30.47-27.61-64.45-49.78-102.54-65.49c-38.2-15.76-77.99-23.99-119.24-25.71
		c-27.53-1.14-54.81,0.48-81.81,6c-71.45,14.62-133.16,47.22-183.91,99.94c-25.27,26.25-46.4,55.49-62.39,88.28
		c-25.61,52.54-36.6,108.11-34.02,166.45c0.73,16.52,2.78,32.86,6.12,49.04c15.45,74.91,51.72,138.08,108.77,188.79
		C791.66,854.05,869.61,882.89,958.23,884.16z"/>
	<path class="st0" d="M1232.8,188.77c-0.71,1.04-1.32,2.16-2.13,3.11c-11.43,13.45-22.88,26.88-34.32,40.32
		c-0.74,0.87-1.48,1.75-2.23,2.62c-1.14,1.32-2.43,1.34-3.82,0.41c-0.24-0.16-0.44-0.36-0.66-0.55c-6.79-5.76-7.34-4.62-1.33-11.64
		c16.8-19.62,33.47-39.35,50.19-59.04c0.46-0.55,0.92-1.1,1.41-1.63c1.51-1.62,2.67-4.2,5.52-3.05c2.9,1.18,5.16,3.26,5.58,6.57
		c0.2,1.52-0.04,3.15-0.35,4.68c-3.98,19.81-8.02,39.61-12.02,59.42c-0.3,1.48-0.47,2.99-0.7,4.48c0.26,0.14,0.53,0.28,0.79,0.41
		c1.17-1.17,2.44-2.25,3.51-3.51c11.22-13.25,22.41-26.52,33.59-39.81c1-1.19,1.86-2.5,3.08-4.14c2.78,2.42,4.87,4.1,6.79,5.96
		c1.44,1.39,1.37,3.09,0.25,4.7c-0.73,1.06-1.51,2.1-2.34,3.08c-17.55,20.68-35.11,41.35-52.67,62.01
		c-2.94,3.45-4.36,3.48-7.69,0.33c-2.83-2.68-3.15-5.94-2.37-9.51c1.71-7.84,3.42-15.69,5.07-23.54
		c2.66-12.62,5.29-25.25,7.91-37.88c0.2-0.95,0.16-1.96,0.23-2.94C1233.65,189.36,1233.22,189.06,1232.8,188.77z"/>
	<path class="st0" d="M493.91,434.35c0.34-2.87,0.55-5.27,0.92-7.65c0.57-3.69,1.92-4.46,5.72-3.63c5.31,1.17,10.63,2.35,15.97,3.37
		c22.38,4.28,44.78,8.51,67.17,12.76c1.24,0.24,2.46,0.59,3.59,0.87c0.75,6.13-1.79,10.24-7.29,12.04
		c-19.2,6.29-38.41,12.57-57.61,18.87c-1.75,0.58-3.49,1.22-5.26,2.25c20.43,4.61,41.03,8.13,61.55,12.33
		c0.78,3.52-0.4,6.47-1.69,9.28c-1.05,2.27-3.28,1.96-5.3,1.58c-6.34-1.18-12.68-2.41-19.02-3.6c-20.57-3.87-41.13-7.76-61.71-11.6
		c-5.76-1.08-6.72-2.68-4.61-8.2c1.18-3.09,3.64-4.63,6.66-5.58c8.89-2.8,17.77-5.61,26.62-8.5c10.76-3.51,21.5-7.1,32.24-10.68
		c1.15-0.38,2.24-0.97,3.24-2.25C534.88,442.17,514.66,438.31,493.91,434.35z"/>
	<path class="st0" d="M883.92,979.74c0.32-13.81,3.07-27.07,8.07-39.88c2.64-6.76,6.98-12.03,13.45-15.62
		c9.39-5.22,25.07-2.15,30.88,9.34c3.31,6.55,5.37,13.39,5.24,20.63c-0.21,11.32-1.04,22.63-4.11,33.63c-1.7,6.1-3.94,12-7.41,17.33
		c-8.18,12.57-24.03,15.45-35.59,6.53c-5.57-4.3-8.16-10.28-9.13-16.99C884.6,989.76,884.36,984.73,883.92,979.74z M926.65,953.54
		c0-1.86,0.04-3.73-0.01-5.59c-0.06-2.01-0.05-4.03-0.36-6.01c-0.73-4.65-3.82-7.64-8.49-8.49c-4.38-0.8-7.53,0.66-9.97,4.96
		c-1.19,2.1-2.24,4.36-2.88,6.68c-3.62,13.18-5.24,26.68-6.06,40.29c-0.28,4.64,0.29,9.17,2.44,13.38c3.09,6.04,9.54,7.12,14.1,2.06
		c2.05-2.28,3.85-5.11,4.79-8.01C924.35,980.07,926.76,967,926.65,953.54z"/>
	<path class="st0" d="M1030.24,977.47c-0.27,11.18-0.56,19.63-3.92,27.61c-2.86,6.79-7.29,11.93-14.52,14.27
		c-11.69,3.78-22.62-0.37-28.76-10.98c-3.86-6.68-5.95-13.98-7.06-21.52c-1.4-9.5-2.55-19.05-1.92-28.69
		c0.52-7.94,1.95-15.64,6.61-22.38c6.21-8.99,14.89-12.29,25.44-9.62c4.46,1.13,8.06,3.6,11.12,6.97
		c4.95,5.44,7.96,11.89,9.66,18.95c0.87,3.61,1.52,7.3,1.96,10.99C1029.54,968.74,1029.96,974.46,1030.24,977.47z M988.5,960.2
		c0.87,9.19,1.39,17.36,2.52,25.45c0.67,4.79,2.17,9.48,3.57,14.13c0.52,1.73,1.62,3.39,2.81,4.79c4.39,5.15,11.49,4.25,14.51-1.8
		c2.28-4.58,3.01-9.55,3.29-14.59c0.54-9.95-1.07-19.75-2.16-29.59c-0.62-5.6-1.67-11.07-4.4-16.08c-2.37-4.36-5.69-6.14-10.19-5.58
		c-4.58,0.58-7.37,2.96-8.24,8.04C989.29,950.31,988.97,955.76,988.5,960.2z"/>
	<path class="st0" d="M924.54,158.96c-2.44,0-4.88,0.08-7.31-0.02c-4.46-0.19-5.24-0.97-5.42-5.34c-0.3-7.31-0.53-14.61-0.84-21.92
		c-0.83-19.77-1.68-39.53-2.52-59.3c-0.04-1-0.06-2.01-0.11-3.01c-0.08-1.71,0.8-2.74,2.4-3.06c11.56-2.29,23.11-4.49,34.87-1.18
		c10.73,3.02,18.66,9.43,22.99,19.72c6.99,16.62,7.16,33.53,0.5,50.24c-5.42,13.61-16.27,20.7-30.44,22.93
		c-4.66,0.73-9.4,0.93-14.11,1.37C924.56,159.25,924.55,159.1,924.54,158.96z M962.11,111.89c-0.48-4.8-0.63-8.25-1.21-11.62
		c-3.33-19.35-17.4-26.84-34.99-24.61c-4.35,0.55-5.57,2.21-5.48,6.69c0.05,2.58,0.42,5.14,0.53,7.72
		c0.72,16.47,1.4,32.95,2.11,49.42c0.05,1.14,0.14,2.29,0.31,3.42c0.55,3.71,1,4.22,4.61,4.14c3-0.07,6-0.39,8.98-0.79
		c11.58-1.57,19.13-8.14,22.38-19.21C960.9,121.74,961.37,116.11,962.11,111.89z"/>
	<path class="st0" d="M568.7,350.24c1.62,0.54,2.72,0.85,3.76,1.27c10.92,4.35,21.83,8.71,32.74,13.08c4.9,1.96,5.55,3.14,5.23,8.48
		c-0.4,6.48-1.36,12.82-3.84,18.87c-6.71,16.38-20.91,24.91-38.55,23.48c-16.1-1.31-30.02-7.19-41.29-18.86
		c-15.22-15.75-14.73-41.59,1-56.62c3.54-3.38,4.22-3.4,7.86-0.22c0.32,0.28,0.65,0.57,0.96,0.86c3.85,3.49,3.69,3.61,0.49,7.54
		c-2.61,3.2-5.25,6.54-6.99,10.24c-4.74,10.06-3.35,19.67,3.92,28.05c7.61,8.78,17.53,13.71,28.9,15.71
		c4.82,0.85,9.65,1.19,14.54,0.22c5.92-1.18,10.65-4.12,14.26-8.89c3.35-4.43,5.25-9.53,6.42-14.9c0.62-2.86,0.23-3.61-2.4-4.7
		c-5.82-2.42-11.68-4.76-17.56-7.02c-2.64-1.02-3.2-0.74-4.3,1.83c-1.41,3.29-2.78,6.61-4.02,9.97c-0.71,1.92-1.87,2.32-3.68,1.68
		c-8.4-2.97-8.45-3.11-5.41-10.74c2.12-5.33,4.21-10.67,6.34-15.99C567.48,352.55,568.04,351.57,568.7,350.24z"/>
	<path class="st0" d="M621.29,354.96c-1.47-0.89-2.83-1.66-4.14-2.5c-23.13-14.99-46.26-29.98-69.39-44.98
		c-0.6-0.39-1.24-0.74-1.79-1.19c-2.11-1.69-2.29-2.44-0.94-4.72c0.87-1.48,1.88-2.89,2.89-4.28c1.83-2.52,2.29-2.65,4.9-1.02
		c3.41,2.12,6.76,4.35,10.13,6.54c5.17,3.37,10.32,6.77,15.51,10.12c3.24,2.09,3.64,2.01,5.78-1.24c4.5-6.84,8.97-13.69,13.42-20.56
		c2.23-3.44,2.09-4.15-1.52-6.5c-7.82-5.09-15.67-10.14-23.51-15.2c-0.84-0.55-1.69-1.09-2.52-1.65c-1.47-0.98-1.67-2.23-0.73-3.7
		c0.15-0.24,0.31-0.49,0.45-0.73c3.87-6.53,5.08-6.84,11.38-2.75c22.4,14.53,44.8,29.07,67.2,43.6c0.72,0.47,1.47,0.9,2.15,1.44
		c2.08,1.65,2.31,2.43,0.81,4.72c-4.48,6.84-5.06,6.9-11.38,2.8c-8.19-5.32-16.37-10.65-24.55-15.97c-0.72-0.47-1.43-0.96-2.18-1.39
		c-2.8-1.64-3.41-1.56-5.22,1.18c-3.17,4.79-6.24,9.64-9.36,14.46c-1.41,2.17-2.88,4.3-4.28,6.47c-2.29,3.55-2.19,4.07,1.46,6.43
		c8.92,5.77,17.85,11.52,26.79,17.27c0.72,0.47,1.49,0.87,2.19,1.37c3.04,2.13,3.22,3.19,1.1,6.33c-1.04,1.54-2.08,3.09-3.16,4.6
		C622.55,354.24,622.1,354.41,621.29,354.96z"/>
	<path class="st0" d="M497.41,658.81c-0.6-0.53-0.75-0.6-0.8-0.72c-3.93-8.63-3.03-10.59,6.11-12.52
		c7.85-1.66,15.75-3.12,23.63-4.65c4.63-0.89,5.26-1.8,4.36-6.39c-1.49-7.59-2.94-15.2-4.45-22.79c-0.85-4.24-1.25-4.51-5.43-3.7
		c-9.29,1.8-18.56,3.66-27.85,5.47c-1.52,0.29-3.06,0.42-5.22,0.71c-0.52-2.89-1.13-5.49-1.43-8.12c-0.28-2.49,1.39-3.59,3.57-4.05
		c4.77-1.01,9.53-2.03,14.31-2.98c22.92-4.55,45.83-9.08,68.76-13.6c4.13-0.81,4.53-0.51,5.34,3.76c0.42,2.23,0.74,4.48,1.19,7.28
		c-14.02,2.79-27.73,5.52-41.81,8.33c0,1.39-0.2,2.67,0.03,3.86c1.59,8.31,3.21,16.61,4.93,24.89c0.79,3.84,0.92,3.87,4.89,3.11
		c11.12-2.14,22.22-4.36,33.35-6.44c5.02-0.94,6.02-0.11,6.84,4.96c0.91,5.61,0.93,5.7-4.77,6.82c-24.19,4.76-48.4,9.47-72.59,14.2
		C506.02,657.1,501.67,657.97,497.41,658.81z"/>
	<path class="st0" d="M1372.61,432.29c-0.42,0.21-0.77,0.27-0.92,0.47c-5.12,6.97-12.48,10.83-19.99,14.5
		c-5.68,2.77-11.29,5.66-15.99,10.01c-0.49,0.45-1.22,0.64-2.25,1.16c-2.04-3.17-3.1-6.51-3.44-10.05c-0.2-2.11,1.34-3.43,2.99-4.39
		c3.35-1.94,6.77-3.75,10.15-5.64c4.5-2.52,9.18-4.78,13.44-7.66c6.42-4.35,7.87-10.28,4.83-17.35c-1.36-3.16-1.98-3.49-5.24-2.51
		c-9.47,2.84-18.93,5.72-28.4,8.58c-1.1,0.33-2.19,0.69-3.31,0.91c-1.8,0.35-3.08-0.36-3.68-2.13c-0.27-0.81-0.5-1.65-0.73-2.47
		c-1.48-5.35-1.09-6.18,4.16-7.76c18.95-5.68,37.91-11.3,56.87-16.94c7-2.09,14-4.21,21.01-6.28c3.97-1.17,5.01-0.98,6.54,2.58
		c2.48,5.78,5.13,11.59,6.62,17.66c3.8,15.42-6.07,29.3-21.79,31.55c-6.76,0.97-13.15,0.28-19.06-3.39
		C1373.83,432.77,1373.15,432.54,1372.61,432.29z M1371.12,406.45c1.23,3.89,2.04,7.35,3.42,10.57c2.2,5.15,6.19,8.37,11.94,8.28
		c6.33-0.09,12.27-1.67,15.96-7.49c0.88-1.38,1.23-3.2,1.47-4.87c0.66-4.54-0.6-8.78-2.34-12.92c-0.73-1.74-1.83-2.35-3.73-1.77
		C1389.26,400.93,1380.65,403.53,1371.12,406.45z"/>
	<path class="st0" d="M813.1,980.43c2.19,0.75,3.48,1.25,4.79,1.62c6.9,1.95,13.81,3.83,20.7,5.8c3.88,1.11,4.25,1.69,3.26,5.46
		c-2.74,10.4-3.88,9.1-11.72,6.94c-12.02-3.31-24.03-6.68-36.05-10.02c-0.83-0.23-1.67-0.42-2.48-0.7c-1.61-0.54-2.29-1.6-1.8-3.32
		c0.9-3.17,1.52-6.45,2.75-9.49c0.64-1.57,2.11-3.05,3.58-3.99c6.06-3.84,12.35-7.31,18.38-11.2c6.14-3.97,12.27-8.01,18.04-12.49
		c7.61-5.91,11.15-14.06,11.18-23.66c0.02-5.76-3.04-9.45-8.62-10.75c-3.63-0.84-6.04,0.07-8.21,3.12
		c-0.33,0.47-0.59,0.98-0.88,1.48c-2.7,4.53-2.94,4.63-7.83,3.16c-2.06-0.62-4.14-1.19-6.15-1.95c-1.53-0.58-2.34-1.8-1.55-3.43
		c3.59-7.46,8.1-14.04,17-15.68c19.12-3.52,34.9,12.47,31.28,31.57c-2.12,11.18-7.83,20.21-16.31,27.64
		c-7.6,6.66-16.31,11.7-24.83,17.01C816.35,978.35,815.08,979.17,813.1,980.43z"/>
	<path class="st0" d="M1069.25,1006.45c-4.05-8.71-3.22-16.41,1.91-23.7c6.39-9.07,11.52-18.84,16.36-28.79
		c4.49-9.22,4.61-18.51,0.24-27.8c-2.63-5.57-6.6-7.55-12.58-6.49c-3.35,0.6-5.49,2.36-6.02,5.8c-0.26,1.69-0.18,3.46-0.59,5.11
		c-0.28,1.13-0.99,2.88-1.76,3.03c-4.01,0.79-7.96,2.43-12.09,1.78c-2.76-8.89,0.58-19.17,8.04-24.31
		c7.06-4.86,14.95-6.61,23.36-4.59c6.79,1.63,11.72,5.94,15.08,11.97c5.2,9.32,6.1,19.29,3.97,29.61
		c-1.58,7.67-4.75,14.73-8.49,21.54c-2.69,4.91-5.59,9.7-8.39,14.54c-0.63,1.1-1.23,2.22-2.13,3.83c1.38-0.11,2.29-0.08,3.16-0.26
		c7.71-1.64,15.41-3.35,23.13-4.96c3.53-0.73,4.28-0.21,5.12,3.25c0.4,1.67,0.77,3.36,0.98,5.07c0.45,3.75-0.04,4.53-3.77,5.42
		c-6.27,1.5-12.58,2.87-18.87,4.29c-7.41,1.68-14.82,3.37-22.24,5.02C1072.3,1006.11,1070.89,1006.22,1069.25,1006.45z"/>
	<path class="st0" d="M1156.54,209.92c-12.31,0.03-23.04-7.59-26.21-18.56c-1.83-6.32-1.23-12.58,0.93-18.61
		c1.73-4.84,3.8-9.62,6.25-14.14c8.06-14.89,16.36-29.66,24.58-44.47c2.33-4.19,3.17-4.37,7.41-1.82c0.61,0.37,1.24,0.72,1.83,1.14
		c2.78,1.99,3.03,2.96,1.53,6.18c-0.61,1.3-1.33,2.54-2.03,3.8c-7.73,13.93-15.56,27.81-23.14,41.82c-2.17,4.01-4.04,8.27-5.3,12.64
		c-0.79,2.77-0.74,6.05-0.12,8.9c2.23,10.18,13.24,14.43,21.94,8.67c5.16-3.41,8.77-8.22,11.75-13.53
		c4.29-7.63,8.55-15.28,12.81-22.93c4.33-7.78,8.62-15.57,12.95-23.35c2.11-3.79,2.64-3.92,6.32-1.88c6.11,3.38,6.35,4.06,2.86,10.3
		c-8.53,15.29-17.12,30.55-25.69,45.82c-3.87,6.9-9.09,12.51-15.96,16.54C1165.32,208.72,1161.1,209.94,1156.54,209.92z"/>
	<path class="st0" d="M1047.54,166.08c-1.87-0.14-3.3-0.16-4.71-0.37c-6.31-0.93-7.48-2.07-8.41-8.33
		c-0.95-6.38-1.83-12.77-2.73-19.16c-0.63-4.51-0.77-4.7-5.13-5.39c-4.96-0.78-9.92-1.55-14.89-2.23c-3.89-0.53-4.62-0.11-6.31,3.53
		c-2.89,6.25-5.78,12.5-8.55,18.8c-2.32,5.26-3.56,6.02-9.28,5c-0.85-0.15-1.67-0.43-2.51-0.62c-1.99-0.45-2.59-1.59-1.79-3.48
		c0.5-1.19,0.96-2.4,1.5-3.56c12.08-26.02,24.16-52.04,36.25-78.06c2.01-4.32,2.02-4.31,8.13-3.38c3.55,0.54,4.24,1.31,4.87,5.4
		c4.52,29.33,9.05,58.66,13.54,88C1047.69,163.33,1047.54,164.46,1047.54,166.08z M1013.07,118.52c5.1,1.3,10.06,1.89,15.63,2.11
		c-1.12-8.83-2.3-17.05-4.22-25.54C1021.96,97.81,1014.95,112.27,1013.07,118.52z"/>
	<path class="st0" d="M659.2,297.75c-1.03-1.62-1.92-2.89-2.67-4.23c-14.06-25.02-28.11-50.05-42.14-75.08
		c-2.57-4.59-1.5-8.54,3.13-11.19c0.76-0.44,1.94-0.52,2.81-0.31c1.23,0.29,2.39,0.96,3.53,1.55c25.67,13.11,51.34,26.23,77,39.36
		c1.37,0.7,2.65,1.56,4.14,2.46c-1.54,3.48-4.06,5.55-6.8,7.29c-1.92,1.22-3.92,0.31-5.72-0.6c-5.89-2.98-11.71-6.08-17.63-9
		c-6.6-3.26-5-3.68-10.27,1.81c-3.08,3.21-6.16,6.43-9.21,9.67c-2.53,2.69-2.61,3.05-0.76,6.38c3.14,5.64,6.29,11.28,9.59,16.83
		c3.99,6.72,3.62,9.05-2.58,13.69C661.06,296.79,660.39,297.08,659.2,297.75z M634.45,227.49c0.57,3.91,9.27,20.05,12.45,23.73
		c2.54-2.71,5.17-5.32,7.54-8.14c2.08-2.47,1.94-4.06-0.81-5.6C647.57,234.1,641.31,231.04,634.45,227.49z"/>
	<path class="st0" d="M575.26,507.78c0.37,3.59,0.76,6.26,0.9,8.95c0.1,1.97-1.18,3.2-2.92,3.82c-1.61,0.58-3.32,0.89-4.96,1.4
		c-6.3,1.94-12.59,3.88-18.87,5.87c-3.33,1.05-3.86,1.76-3.9,5.23c-0.06,5.02-0.04,10.04-0.01,15.06c0.03,3.94,0.55,4.66,4.31,5.81
		c6.99,2.13,13.98,4.23,20.99,6.31c4.84,1.44,5.42,2.2,5.12,7.32c-0.1,1.67-0.34,3.34-0.57,5.52c-2.28-0.33-4.13-0.38-5.84-0.89
		c-27.6-8.21-55.18-16.47-82.75-24.74c-4.71-1.41-6.55-6.07-4.23-10.47c1.07-2.04,3.12-2.38,5.02-2.95
		c10.15-3.04,20.33-6.02,30.47-9.1c16.86-5.12,33.69-10.32,50.54-15.45C570.55,508.85,572.61,508.44,575.26,507.78z M508.77,540.25
		c-0.02,0.44-0.03,0.88-0.05,1.32c6.1,1.91,12.19,3.88,18.31,5.7c5.51,1.64,6.6,0.9,6.78-4.89c0.1-3.03,0.88-6.22-1-9.43
		C524.73,535.4,516.75,537.82,508.77,540.25z"/>
	<path class="st0" d="M1324.45,392.36c-2.68,1.16-5.25,2.37-7.89,3.37c-1.66,0.63-3.12,0.08-4.05-1.51
		c-0.65-1.11-1.28-2.24-1.84-3.41c-4.79-9.96-9.57-19.92-14.33-29.89c-1.69-3.54-1.48-4.18,2.17-5.93
		c25.74-12.34,51.49-24.64,77.25-36.95c0.88-0.42,1.84-0.7,3.12-1.17c0.72,1.15,1.47,2.16,2.01,3.27
		c5.04,10.48,10.05,20.96,15.04,31.46c1.66,3.49,1.53,3.75-1.83,5.74c-6.13,3.63-6.96,3.4-10.03-2.92
		c-2.82-5.81-5.56-11.65-8.38-17.47c-1.98-4.09-2.52-4.25-6.54-2.33c-5.18,2.47-10.36,4.92-15.54,7.39
		c-3.78,1.8-3.99,2.38-2.13,6.26c2.92,6.08,5.9,12.13,8.84,18.2c1.79,3.7,1.66,4.06-1.92,5.99c-0.51,0.27-1.02,0.53-1.54,0.78
		c-4.45,2.11-5.67,1.8-7.82-2.55c-2.8-5.66-5.43-11.4-8.14-17.1c-1.95-4.12-2.51-4.33-6.5-2.42c-6.47,3.1-12.93,6.2-19.4,9.3
		c-4.18,2.01-4.34,2.54-2.25,6.9c3.66,7.63,7.3,15.28,10.94,22.92C1323.94,390.81,1324.09,391.36,1324.45,392.36z"/>
	<path class="st0" d="M1295.74,307.41c2.29-0.7,4.6-1.37,6.88-2.09c18.18-5.76,36.35-11.53,54.52-17.3
		c4.24-1.35,5.11-1.02,7.44,2.62c1.23,1.92,2.51,3.82,4.02,6.1c-1.31,0.54-2.39,1.1-3.54,1.46c-28.61,8.91-57.21,17.81-85.83,26.68
		c-3.94,1.22-4.43,0.99-6.59-2.48c-0.45-0.73-0.95-1.44-1.49-2.1c-1.2-1.47-1-2.9,0.05-4.32c0.51-0.69,1.06-1.36,1.61-2.02
		c18.38-22.06,36.76-44.12,55.14-66.18c3.8-4.56,4.42-4.51,7.59,0.55c2.97,4.74,2.94,5.93-0.71,10.31
		c-12.41,14.88-24.87,29.73-37.3,44.6c-0.89,1.06-1.68,2.19-2.52,3.29C1295.25,306.82,1295.49,307.12,1295.74,307.41z"/>
	<path class="st0" d="M1352.05,466.99c-1.65,4.19-3.31,7.82-4.5,11.6c-1.36,4.34-0.17,8.52,1.73,12.48
		c1.23,2.56,3.28,4.29,5.93,5.34c8.48,3.36,17.44,0.09,21.56-8.08c1.28-2.54,1.98-5.38,3.11-8.01c1.58-3.68,2.94-7.52,5.04-10.89
		c5.78-9.25,18.3-13.76,29.09-10.85c10.44,2.81,17.55,12.07,18.12,23.56c0.23,4.66-0.39,9.17-2.4,13.41c-1.37,2.9-1.9,3.1-4.97,2.4
		c-1.68-0.38-3.39-0.65-5.04-1.12c-3.29-0.95-3.91-2.38-2.04-5.35c2.17-3.47,2.93-7.1,2.12-11.09c-1.14-5.62-4.54-9.19-9.72-10.22
		c-5.95-1.18-11.64,1.05-14.57,5.96c-1.17,1.95-1.98,4.13-2.86,6.25c-1.31,3.18-2.38,6.47-3.81,9.59
		c-5.88,12.8-19.56,20.03-32.38,17.33c-11.36-2.39-22.76-11.85-21.14-29.51c0.29-3.12,0.93-6.26,1.89-9.24
		c2.11-6.57,6.06-8.11,12.34-5.08C1350.44,465.89,1351.24,466.49,1352.05,466.99z"/>
	<path class="st0" d="M591.7,700.89c0.46-1.77,0.77-3.14,1.17-4.48c1.69-5.7,0.68-11.09-1.99-16.23c-2.4-4.61-6.2-6.91-11.51-6.8
		c-8.54,0.18-15.18,5.51-16.68,13.87c-0.78,4.36-1.04,8.82-1.73,13.2c-2.34,14.88-13.22,23.8-28.25,23.31
		c-3.97-0.13-7.6-1.26-10.94-3.41c-9.44-6.05-14.86-18.34-12.4-28.17c0.89-3.56,1.23-3.82,4.95-3.91c1.58-0.04,3.16-0.13,4.73-0.11
		c3.88,0.05,4.14,0.64,3.23,4.37c-0.59,2.45-1.06,5.13-0.69,7.57c1.06,7.05,5.78,11.53,11.7,11.73c7.11,0.24,13.29-4.28,14.8-11.26
		c0.91-4.19,1.33-8.49,1.82-12.76c1.3-11.38,6.99-19.5,17.61-24.04c5.28-2.26,10.84-2.92,16.44-2.05
		c8.25,1.28,14.06,6.13,17.88,13.42c3.52,6.71,4.18,13.96,3.57,21.35c-0.34,4.07-1.67,5.11-5.87,5.26
		c-1.72,0.06-3.44-0.04-5.16-0.16C593.7,701.55,593.04,701.26,591.7,700.89z"/>
	<path class="st0" d="M1424.99,636.65c-0.93,3.77-1.73,7.2-2.65,10.61c-0.5,1.84-2.15,2.13-3.73,2.4
		c-6.22,1.05-12.44,2.1-18.67,3.14c-5.52,0.92-11.04,1.81-16.55,2.78c-0.93,0.16-1.8,0.65-3.27,1.2c1.3,1.3,2.21,2.33,3.24,3.23
		c8.31,7.29,16.63,14.57,24.95,21.84c3.46,3.02,3.58,3.52,2.25,7.76c-0.81,2.56-1.52,5.15-2.39,8.13c-1.31-1.06-2.31-1.81-3.24-2.64
		c-12.41-11.11-24.84-22.18-37.17-33.37c-2.85-2.58-5.98-4.33-9.68-5.3c-9.29-2.43-18.55-4.98-27.81-7.51
		c-5.25-1.43-5.47-1.87-3.83-7.21c0.25-0.82,0.49-1.66,0.84-2.44c1.11-2.46,2.08-3.07,4.74-2.45c3.35,0.78,6.64,1.8,9.95,2.73
		c6.9,1.93,13.81,3.82,20.7,5.81c3.83,1.1,7.61,0.89,11.48,0.17c16.21-3.01,32.43-5.93,48.66-8.86
		C1423.34,636.57,1423.9,636.65,1424.99,636.65z"/>
	<path class="st0" d="M1423.17,558.18c2.65,0,4.66-0.13,6.64,0.03c3.34,0.27,4.42,1.29,4.28,4.61c-0.21,5.15-0.66,10.3-1.2,15.43
		c-1.32,12.54-2.74,25.07-4.13,37.61c-0.05,0.42-0.2,0.83-0.4,1.64c-3.27,0.8-6.63,0.35-9.94-0.44c-1.65-0.4-1.97-1.88-1.78-3.46
		c0.61-4.96,1.15-9.94,1.82-14.89c0.65-4.75,0.23-5.46-4.72-5.97c-12.7-1.3-25.4-2.49-38.1-3.75c-11.42-1.14-22.83-2.29-34.24-3.49
		c-3.27-0.34-3.68-1.04-3.26-4.51c0.19-1.56,0.11-3.15,0.28-4.72c0.3-2.77,1.19-3.41,3.92-3.13c18.1,1.92,36.21,3.82,54.32,5.75
		c6.41,0.69,12.82,1.48,19.23,2.21c3.95,0.45,4.52,0.08,5.01-3.87c0.54-4.41,0.86-8.85,1.34-13.26
		C1422.44,562.16,1422.81,560.37,1423.17,558.18z"/>
	<path class="st0" d="M826.91,179.76c-1.08-3.45-2.1-6.7-3.12-9.96c-7.7-24.79-15.4-49.58-23.08-74.37
		c-1.37-4.43-0.97-5.16,3.44-6.48c0.69-0.21,1.38-0.4,2.08-0.55c3.86-0.79,4.51-0.55,5.74,3.19c2.55,7.76,4.98,15.57,7.4,23.38
		c4.46,14.38,8.87,28.78,13.3,43.17c0.25,0.82,0.49,1.65,0.78,2.46c1.32,3.68,2.4,4.26,6.13,3.1c7.12-2.22,14.22-4.49,21.33-6.73
		c0.82-0.26,1.66-0.45,2.47-0.74c1.68-0.61,2.68,0.03,3.45,1.56c3.33,6.65,2.36,9.11-4.7,11.32c-10.67,3.35-21.35,6.65-32.04,9.95
		C829.16,179.34,828.19,179.48,826.91,179.76z"/>
	<path class="st0" d="M1340.2,527.89c6.45-0.16,12.17-0.36,17.88-0.44c22.67-0.31,45.35-0.58,68.02-0.87c0.14,0,0.29,0,0.43,0
		c7.47-0.09,9.35,2.42,7.34,9.7c-0.46,1.65-1.57,2.37-3.09,2.52c-1.71,0.17-3.44,0.19-5.16,0.19c-5.31,0.02-10.65-0.37-15.93,0.07
		c-20.9,1.74-41.83,0.29-62.74,0.82c-1,0.03-2.01,0.07-3.01-0.01c-2.75-0.23-3.58-0.98-3.72-3.69
		C1340.1,533.64,1340.2,531.08,1340.2,527.89z"/>
	<path class="st0" d="M865.18,75.69c-0.17-2.08,0.83-3.1,2.79-3.68c7.03-2.08,8.45-1.31,9.83,5.94
		c5.11,26.88,10.18,53.76,15.27,80.65c0.72,3.83,0.65,3.93-3.27,4.77c-1.12,0.24-2.23,0.54-3.35,0.76
		c-4.35,0.84-4.67,0.65-5.46-3.52c-5.17-27.45-10.33-54.9-15.48-82.36C865.35,77.41,865.29,76.55,865.18,75.69z"/>
	<path class="st0" d="M1309.84,218.72c2.99,3.47,5.48,6.35,7.89,9.15c-16.67,14.76-33.1,29.29-49.5,43.85
		c-5.58,4.95-11.1,9.97-16.65,14.96c-3.48,3.12-4.38,3.09-7.27-0.39c-1.36-1.64-2.64-3.35-4.26-5.44
		C1263.24,260.2,1286.24,239.73,1309.84,218.72z"/>
	<path class="st0" d="M666.48,164.94c0.41,0.24,1.25,0.54,1.82,1.1c1.02,1,1.92,2.13,2.81,3.25c16.73,21,33.44,42.01,50.16,63.01
		c0.54,0.67,1.06,1.36,1.61,2.02c1.35,1.62,1.29,3.09-0.38,4.46c-1.33,1.09-2.61,2.25-3.98,3.29c-2.04,1.56-3.07,1.53-4.92-0.17
		c-0.84-0.77-1.52-1.72-2.24-2.61c-16.89-21.23-33.78-42.47-50.66-63.71c-0.62-0.78-1.33-1.55-1.76-2.43
		c-0.35-0.73-0.56-1.67-0.44-2.46C658.76,168.86,664.16,164.86,666.48,164.94z"/>
	<path class="st0" d="M1121.26,714.01c-11.91,0-23.84,0.36-35.73-0.14c-6.54-0.27-13.13-1.51-19.48-3.16
		c-10.58-2.74-21.29-4.65-32.08-6.23c-12.68-1.86-24.88-5.62-36.98-9.7c-3.08-1.04-6.07-2.68-8.76-4.53
		c-10.29-7.07-20.45-14.34-30.66-21.53c-3.68-2.59-6.95-5.56-9.12-9.58c-4.33-8.01-2.16-17.76,5.01-22.61
		c3.1-2.09,6.52-2.85,10.22-2.66c1.83,0.09,4.04,0.57,4.79-1.75c0.74-2.27-0.36-4.31-2.1-5.72c-1.18-0.95-2.7-1.69-4.19-2.02
		c-2.36-0.52-4.81-0.74-7.24-0.87c-2.58-0.14-5.17,0.01-7.75-0.05c-6.05-0.14-8.08-2.15-7.87-8.11c0.12-3.43,0.42-6.88,0.96-10.27
		c0.76-4.8,3.14-7.27,7.78-7.92c5.84-0.82,11.33-0.27,16.1,4.02c6.43,5.8,14.47,8.58,22.57,11.19c5.99,1.93,11.9,4.16,17.75,6.5
		c4.26,1.7,4.99,3.42,4.98,7.99c-0.02,6.34-2.61,10.62-8.79,12.77c-4.66,1.62-8.65,4.49-12.21,7.89c-0.82,0.79-1.68,1.61-2.26,2.58
		c-0.99,1.65-0.41,3.14,1.48,3.66c1.36,0.38,2.83,0.49,4.26,0.51c7.48,0.11,14.01,2.63,19.74,7.41c4.95,4.12,10.56,6.71,16.97,7.88
		c3.34,0.61,6.59,1.98,9.71,3.38c4.6,2.07,9.2,3.78,14.31,4.39c4.23,0.51,8.41,1.81,12.5,3.1c3.1,0.98,6.13,1.12,9.32,0.91
		c3.4-0.22,6.88-0.3,10.24,0.16c8.8,1.21,17.56,2.74,26.33,4.16c1.27,0.21,2.52,0.55,3.79,0.75c3.83,0.6,6.77-0.9,7.51-4.71
		c1.67-8.6,1.54-17.14-2.81-25.12c-1.46-2.68-3.71-4.51-6.78-4.72c-3.41-0.23-6.98-0.65-10.26,0.05
		c-10.17,2.17-20.21,1.55-30.37,0.05c-11.35-1.68-22.76-2.96-34.15-4.31c-6.09-0.72-11.41-2.75-15.12-7.94
		c-3.49-4.89-3.39-9.44,0.32-14.23c5.2-6.72,12.23-8.96,20.28-7.56c10.48,1.81,20.71,4.72,30.25,9.56
		c4.87,2.47,9.93,3.49,15.36,3.29c5.59-0.21,11.2-0.06,16.8-0.23c2.28-0.07,4.59-0.37,6.81-0.92c4.94-1.22,7.72-5.03,7.64-10.09
		c-0.08-5.02-2.59-8.39-7.99-9.03c-7.82-0.93-15.73-1.5-23.6-1.57c-9.9-0.09-19.8,0.47-29.7,0.75c-1.58,0.05-3.16,0.1-4.74,0.17
		c-4.48,0.19-7.8-1.65-9.73-5.73c-1.95-4.13-1.65-8.22,1.27-11.72c4.97-5.98,11.32-9.58,19.22-10.2c6.98-0.54,13.36,1.62,19.48,4.54
		c6.53,3.12,13.32,4.31,20.47,3.88c0.86-0.05,1.72-0.11,2.57-0.26c7.03-1.21,9.52-8.06,4.89-13.56c-2.85-3.38-6.62-5.14-11-4.99
		c-9.89,0.33-19.78,0.82-29.67,1.38c-4.44,0.25-8.85,0.86-13.29,1.21c-1.71,0.14-3.45,0.13-5.16-0.02
		c-9.1-0.81-14.57-9.67-11.34-18.27c1.29-3.45,3.91-5.11,7.39-5.82c5.47-1.12,10.88-0.37,16.26,0.48c4.39,0.69,8.7,1.91,13.1,2.46
		c2.79,0.35,5.75,0.31,8.5-0.24c3.49-0.7,4.62-2.92,4.06-6.41c-1.28-7.86-8.62-13.06-16.39-11.22c-5.6,1.33-10.97,1.35-16.54-0.21
		c-3.98-1.12-8.18-1.44-12.29-2.13c-0.99-0.17-1.98-0.32-2.95-0.56c-7.39-1.82-10.37-5.85-9.86-13.33
		c0.46-6.71,4.95-11.75,11.83-11.95c6.41-0.19,12.86,0.67,19.29,1.08c12.31,0.78,24.62,1.58,36.94,2.35c3.15,0.2,6.3,0.36,9.46,0.44
		c1.42,0.04,2.87-0.02,4.27-0.25c3.11-0.52,5.26-2.28,6.01-5.4c0.73-3.02-0.75-6.31-3.6-8.16c-4.29-2.77-9-2.58-13.74-1.76
		c-6.36,1.1-12.68,2.44-19.05,3.43c-13.39,2.07-26.86,2.42-40.36,1.22c-1.71-0.15-3.43-0.48-5.06-0.99
		c-5.97-1.84-9.53-5.92-10-12.13c-0.63-8.29,1.59-15.92,6.56-22.65c2.57-3.47,6.16-5.61,10.17-6.93
		c14.54-4.77,28.81-4.56,42.52,2.88c3.82,2.07,7.73,3.78,12.04,4.43c6.09,0.91,11.38-0.65,15.63-5.24c1.07-1.16,2.03-2.41,3.1-3.58
		c6.37-7.02,15.81-7.28,22.39-0.45c1.97,2.05,3.61,4.47,5.17,6.87c5.09,7.85,12.05,11.51,21.53,10.39
		c4.69-0.55,9.46-0.76,14.18-0.69c6.04,0.09,11.59-1.38,17.07-3.77c4.05-1.77,8.3-3.12,12.51-4.5c1.48-0.48,3.1-0.67,4.66-0.71
		c2.47-0.06,3.49,0.84,3.41,3.35c-0.23,6.56-1.51,12.83-5.84,18.09c-2.74,3.34-6.06,5.06-10.58,4.29c-1.76-0.3-3.8-0.13-5.48,0.48
		c-12.18,4.45-24.82,5.7-37.67,5.85c-2.5,0.03-5.11,0.69-7.47,1.59c-3.26,1.25-4.87,4.3-4.55,7.52c0.33,3.32,2.78,4.56,5.48,5.28
		c2.34,0.62,4.81,1.22,7.2,1.14c10.32-0.3,20.65-0.72,30.95-1.36c9.16-0.58,18.28-1.59,27.44-2.25c2.85-0.21,5.96-0.24,7.56,2.87
		c1.63,3.15-0.53,5.48-2.13,7.81c-3.93,5.72-9.14,8.63-16.36,8.45c-14.01-0.35-25.77,4.74-34.82,15.68
		c-1.17,1.41-2.69,2.54-4.13,3.71c-1.5,1.22-2.15,2.61-1.43,4.52c0.68,1.78,1.82,3.02,3.81,2.88c4.29-0.29,8.61-0.47,12.85-1.16
		c6.36-1.03,12.63-2.6,18.99-3.67c3.07-0.52,6.29-0.83,9.36-0.51c5.49,0.57,7.73,5.41,4.74,10.08c-1.44,2.26-3.24,4.54-5.41,6.05
		c-3.85,2.69-7.92,5.25-12.23,7.06c-13.46,5.63-27.65,8.52-42.06,10.43c-1.41,0.19-2.83,0.46-4.19,0.85
		c-1.91,0.56-2.74,2.12-2.73,3.95c0.01,1.7,0.99,3.12,2.65,3.57c2.2,0.6,4.5,1.28,6.74,1.21c6.58-0.22,13.17-0.6,19.72-1.27
		c7.27-0.74,14.51-1.87,21.76-2.83c1.83-0.24,3.5-0.06,4.42,1.81c0.8,1.64,0.23,3.15-0.92,4.35c-5.65,5.96-12.03,10.63-20.52,11.64
		c-9.99,1.19-20.01,2.31-30.06,1.56c-9.37-0.7-15.22,12.14-11.87,19.05c1.54,3.17,4.16,4.75,7.66,4.48
		c7.86-0.6,15.73-1.24,23.57-2.06c2.39-0.25,4.88-0.82,7.05-1.83c9.08-4.24,18.77-6.19,28.49-8.04c9-1.72,17.41-4.77,24.78-10.35
		c3.04-2.3,6.48-3.67,10.29-4.05c6.21-0.62,9.82,3.81,7.98,9.72c-1.33,4.28-4.04,7.19-8.24,8.73c-2.15,0.79-4.34,1.51-6.44,2.41
		c-5.15,2.19-9.51,5.51-12.4,10.3c-2.53,4.19-6.12,6.43-10.76,6.96c-8.98,1.03-17.97,1.91-26.97,2.75
		c-9.71,0.91-19.45,1.55-29.15,2.62c-8.08,0.89-13.29,5.59-15.84,13.27c-2.19,6.62-2.8,13.47-2.73,20.39
		c0.04,3.78,2.16,5.31,5.89,4.99c6.71-0.56,13.45-0.85,20.16-1.45c4.41-0.4,8.89-0.73,13.16-1.81c16.71-4.22,33.09-9.43,48.56-17.21
		c1.92-0.97,3.8-2.02,5.71-3.01c2.86-1.49,5.12-3.53,6.83-6.35c2.55-4.19,5.32-4.86,9.85-2.86c4.93,2.17,6.78,6.37,7.33,11.33
		c0.91,8.25-1.84,15.25-7.51,21.18c-4.14,4.34-9.25,7.23-14.65,9.66c-9.71,4.37-19.86,7.43-30.21,9.87
		c-10.61,2.5-21.2,5.05-31.8,7.59c-8.14,1.95-16.41,2.76-24.77,2.61c-9.33-0.16-18.66-0.44-27.99-0.66
		C1121.26,714.21,1121.26,714.11,1121.26,714.01z M1116.94,532.51c-5.11,0.06-7.86,2.2-8.5,6.72c-0.36,2.53-0.3,5.15-0.11,7.71
		c0.2,2.7,1.15,3.55,3.86,3.52c2.56-0.03,5.14-0.3,7.68-0.67c6.93-1,13.83-2.41,20.71,0.48c2.01,0.84,3.96,0.07,5.38-1.65
		c3.23-3.89,5.85-8.16,7.18-13.06c1.2-4.41-1.58-6.94-6.04-5.66c-0.68,0.2-1.35,0.48-2,0.77c-6.71,3.08-13.73,3.74-20.98,2.72
		C1121.57,533.03,1119.01,532.76,1116.94,532.51z"/>
	<path class="st0" d="M836.8,391.6c9.24,1.18,18.49,2.31,27.72,3.56c4,0.54,7.68-0.34,11.3-1.89c6.99-2.98,13.96-6.02,21.02-8.84
		c7.1-2.84,9.78-1.51,12.21,5.84c0.72,2.17,1.3,4.42,1.55,6.68c0.38,3.33-0.82,5.28-4.09,6.12c-7,1.79-12.8,5.57-18.39,9.96
		c-2.18,1.71-4.96,3.33-7.63,3.64c-9.79,1.13-19.63,2.63-29.48,0.23c-4.73-1.15-9.48-2.29-14.26-3.2c-1.79-0.34-3.75-0.28-5.54,0.05
		c-4.16,0.78-6.31,4.18-5.41,8.29c0.24,1.1,0.65,2.24,1.25,3.19c5.69,9.01,8.52,19.05,10.93,29.29
		c3.36,14.23,6.93,28.42,10.31,42.65c0.89,3.76,1.26,7.65,2.16,11.41c0.79,3.33,1.61,6.73,3.05,9.81
		c5.85,12.45,15.06,16.22,27.74,14.49c4.11-0.56,8.21-1.38,12.25-2.35c5.84-1.4,11.68-1.61,17.47-0.12
		c7.66,1.97,14.52,0.35,20.76-4.22c5.1-3.73,9.98-7.77,15.15-11.38c3.63-2.53,7.51-4.74,11.44-6.79c3.37-1.76,7.13-2.04,10.91-1.92
		c3.76,0.12,6.57,1.77,8.45,5.04c0.71,1.24,1.4,2.51,2.24,3.67c1.48,2.04,3.36,3.66,6.01,3.71c2.91,0.05,4.4,1.62,5.34,4.15
		c1.51,4.03,3.23,7.98,4.66,12.04c1.65,4.67,4.58,7.88,9.44,9.18c3.66,0.97,5.81,3.34,6.94,6.95c0.67,2.15,1.88,4.15,2.86,6.2
		c0.8,1.68,1.79,3.29,2.39,5.03c0.67,1.94,0.12,3.75-1.66,4.91c-1.71,1.12-3.63,1.19-5.24-0.09c-1.56-1.24-2.89-2.77-4.26-4.24
		c-2.24-2.42-4.33-4.99-6.66-7.32c-3.21-3.21-7.08-5.49-11.51-6.44c-4.74-1.01-8.91-3.11-12.91-5.69c-0.97-0.62-1.93-1.25-2.91-1.84
		c-5.68-3.39-11.46-3.56-17.13-0.15c-4.55,2.73-8.95,5.72-13.32,8.73c-3.79,2.6-7.48,5.33-11.17,8.08
		c-4.81,3.58-10.02,5.41-16.12,4.33c-4.18-0.74-8.3-0.05-12.31,1.24c-2.05,0.66-4.06,1.42-6.11,2.08c-5.02,1.62-9.92,1.33-14.59-1.2
		c-5.18-2.81-10.71-3.92-16.57-3.9c-10.48,0.03-20.95-0.18-31.43-0.04c-4.57,0.06-9.14,0.78-13.71,1.17
		c-12.58,1.08-25.14,2.39-37.73,3.13c-10.53,0.62-20.87,2.08-30.84,5.44c-8.16,2.75-15.9,2.59-23.81-1.03
		c-11.6-5.31-23.7-4.86-35.87-2.22c-5.5,1.19-11.08,2.23-16.6,0.54c-3.38-1.03-6.75-2.43-9.78-4.24c-4.93-2.94-7.26-7.44-6.97-13.37
		c0.19-3.85-0.12-7.74-0.46-11.59c-0.93-10.88,5.06-19.37,15.12-21.27c3.25-0.62,6.28,0.15,9.27,1.22
		c9.99,3.57,20.09,6.9,29.93,10.86c7.08,2.85,14.13,3.46,21.5,2.16c1.98-0.35,3.95-0.74,5.93-1.04c4.06-0.63,6.34-2.96,7.05-7
		c1.15-6.49,2.18-13.02,3.68-19.44c2.03-8.65,4.52-17.2,6.68-25.82c1.04-4.17,1.88-8.4,2.65-12.63c1.99-10.86,6.72-20.69,11.29-30.6
		c1.13-2.46,2.23-5.03,2.72-7.67c1.24-6.61-2.6-10.54-9.27-9.88c-1.57,0.16-3.14,0.39-4.72,0.38c-16.48-0.02-32.44,3.93-48.6,6.38
		c-7.09,1.08-14.16,2.29-21.25,3.4c-1.42,0.22-2.86,0.41-4.28,0.41c-6.8-0.03-12.55-1.96-16.64-8.03
		c-7.81-11.59-8.18-18.48,3.56-30.25c2.91-2.91,6.8-4.23,10.68-5.33c2.62-0.74,5.37-1.05,7.94-1.91c3.92-1.32,7.99-2.51,11.55-4.55
		c7.13-4.07,14.04-4.08,21.37-0.73c8.21,3.75,16.54,7.26,24.87,10.76c5.64,2.36,11.47,2.31,17.31,0.75c4.24-1.13,5.58-2.87,5.92-7.3
		c0.29-3.71,0.5-7.44,0.96-11.14c0.43-3.4,2.27-5.85,5.67-6.88c9.1-2.73,18.29-3.56,27.59-1.19c1.65,0.42,3.28,1.07,4.82,1.82
		c4.97,2.41,7.69,6.34,7.66,11.95c-0.02,2.87-0.37,5.74-0.28,8.6c0.17,5.19,2.67,7.49,7.87,7.52c3.45,0.02,6.89,0,10.34,0
		C836.76,391.78,836.78,391.69,836.8,391.6z M795.49,447.74c-0.68,1.37-0.95,2.05-1.33,2.67c-4.15,6.71-8.35,13.39-12.47,20.12
		c-2.42,3.95-4.04,8.2-4.92,12.77c-1.32,6.9-2.89,13.75-4.28,20.64c-1.57,7.76-2.83,15.54-1.5,23.49c0.25,1.48,0.44,2.9,2.1,3.41
		c1.64,0.5,2.79-0.36,3.61-1.64c3.63-5.66,9.12-7.1,15.34-6.63c4.58,0.34,9.12,1.13,13.7,1.41c3.12,0.19,6.34,0.19,9.41-0.32
		c5.87-0.97,8.55-4.37,8.17-10.18c-0.17-2.68-0.84-5.38-1.59-7.98c-1.16-3.99-2.62-7.89-3.91-11.85
		c-4.63-14.24-10.25-28.04-18.3-40.73C798.58,451.44,797.36,450.13,795.49,447.74z"/>
	<path class="st0" d="M964.29,561.63c10.1,0.65,19.89,3.45,27.63,11.58c2.35,2.46,5.32,4.33,8,6.48c2.01,1.61,4.09,3.15,6.02,4.85
		c3.41,2.99,3.63,6.97,3.07,11.07c-0.24,1.75-1.44,2.89-3.18,3.01c-2.83,0.2-5.78,0.66-8.51,0.13c-5.74-1.13-11.44-2.61-17.03-4.35
		c-9.13-2.85-17.02-8.16-24.75-13.6c-4.43-3.12-5.64-7.05-4.19-11.15C953.28,564.17,957.31,561.54,964.29,561.63z"/>
</g>
</svg>
