<?xml version="1.0" encoding="utf-8"?>
<!-- Copyright Communication and Software Association of Shanghai Lida University -->
<svg version="1.1" id="Main" xmlns="http://www.w3.org/2000/svg" xmlns:xlink="http://www.w3.org/1999/xlink" x="0px" y="0px"
	 viewBox="0 0 1137 630" style="enable-background:new 0 0 1137 630;" xml:space="preserve">
<style type="text/css">
	.st0{enable-background:new    ;}
	.st1{fill:#FFFFFF;}
	.st2{fill-rule:evenodd;clip-rule:evenodd;fill:#FFFFFF;}
	.st3{fill-rule:evenodd;clip-rule:evenodd;fill:#FFFFFF;}
	.st4{fill-rule:evenodd;clip-rule:evenodd;fill:#FFFFFF;}
</style>
<g class="st0">
	<path class="st1" d="M421.2,408.8v23h10.9c1.8,0,2.7-0.8,2.7-2.5v-5.2h7.4v6.1c0,2.5-0.8,4.3-2.5,5.4c-1.3,0.9-3.6,1.3-6.7,1.3
		h-19.3v-34.3h2.6v0.5c0,0.6,0.2,0.8,0.8,0.8h21.6c0.5,0,0.8-0.3,0.8-0.8v-0.5h2.6V415h-7.4v-6.2H421.2z"/>
	<path class="st1" d="M470.7,411.6v18.5c0,2.5-0.8,4.3-2.5,5.4c-1.3,0.9-3.6,1.3-6.7,1.3h-14.1v-25.2h2.6v0.5c0,0.6,0.2,0.8,0.8,0.8
		h16.4c0.5,0,0.8-0.3,0.8-0.8v-0.5H470.7z M463.6,429.5v-11.8h-9V432h6.3C462.7,432,463.6,431.2,463.6,429.5z"/>
	<path class="st1" d="M500.7,436.8v-18.9h-5.8v18.9H488v-18.9h-5.8v18.9h-6.9v-25.2h2.6v0.5c0,0.6,0.2,0.8,0.8,0.8h25.5
		c0.5,0,0.8-0.3,0.8-0.8v-0.5h2.6v25.2H500.7z"/>
	<path class="st1" d="M537.6,436.8v-18.9h-5.8v18.9h-6.9v-18.9h-5.8v18.9h-6.9v-25.2h2.6v0.5c0,0.6,0.2,0.8,0.8,0.8h25.5
		c0.5,0,0.8-0.3,0.8-0.8v-0.5h2.6v25.2H537.6z"/>
	<path class="st1" d="M584.9,421.4h7.5l-7.2,6.9l7.9,8.5h-7.7c-0.3-0.4-0.9-1-1.7-1.8c-1.1-1.2-2-2.2-2.6-2.8l-2.1,1.9
		c-1,1-2.1,1.7-3.2,2.1c-1.1,0.4-2.7,0.6-4.6,0.6h-9.4v-12.2l6.7-5.5l-4.5-4.7v-12h2.6v0.5c0,0.6,0.2,0.8,0.8,0.8H579
		c0.5,0,0.8-0.3,0.8-0.8v-0.5h2.6v8.6c0,1.4-0.2,2.5-0.7,3.3c-0.4,0.8-1.2,1.7-2.4,2.6l-2.8,2.3l5.1,5.3L584.9,421.4z M571.4,432
		c1.5,0,2.7-0.3,3.4-1l2.7-2.6c-1.7-1.8-3.5-3.7-5.3-5.5l-4,3.3v5.9H571.4z M570.5,412.9l2.5,2.6l2.3-1.9c0.6-0.4,0.8-1.1,0.8-2.1
		v-2.9h-5.6V412.9z"/>
	<path class="st1" d="M627.8,429.8v-4.9l-19.5-6.9v-15.6h2.6v0.5c0,0.6,0.2,0.8,0.8,0.8H631c0.5,0,0.8-0.3,0.8-0.8v-0.5h2.6v11.6
		H627v-5.5h-11.3v5.8l19.5,6.9v8.9c0,2.7-1,4.6-3,5.7c-1.3,0.6-2.9,1-4.9,1h-19.6v-11.2h7.4v6.4h10.5
		C627,432,627.8,431.3,627.8,429.8z"/>
	<path class="st1" d="M663,411.6v18.5c0,2.5-0.8,4.3-2.5,5.4c-1.3,0.9-3.6,1.3-6.7,1.3h-14.1v-25.2h2.6v0.5c0,0.6,0.2,0.8,0.8,0.8
		h16.4c0.5,0,0.8-0.3,0.8-0.8v-0.5H663z M655.9,429.5v-11.8h-9V432h6.3C655,432,655.9,431.2,655.9,429.5z"/>
	<path class="st1" d="M682.4,411.6v6.1h-5.3v19.1H670v-19.1h-4.2v-6.1h2.6v0.5c0,0.6,0.2,0.8,0.8,0.8h0.8v-10.5h2.6v0.5
		c0,0.6,0.2,0.8,0.8,0.8h5.7c0.5,0,0.8-0.3,0.8-0.8v-0.5h2.6v6.1h-5.4v4.4h1.9c0.5,0,0.8-0.3,0.8-0.8v-0.5H682.4z"/>
	<path class="st1" d="M700.1,411.6v6.1h-4.9V432h1.6c0.5,0,0.8-0.3,0.8-0.8v-0.5h2.6v6.1h-12.1v-19.1h-4.3v-6.1h2.6v0.5
		c0,0.6,0.2,0.8,0.8,0.8h0.9v-7.7h7.1v7.7h1.5c0.5,0,0.8-0.3,0.8-0.8v-0.5H700.1z"/>
	<path class="st1" d="M732.3,412.9h7c-2.6,7.6-5.2,15.5-7.6,23.9h-7.3c-0.9-3.8-2.3-9.3-4.2-16.5c-1.9,7.1-3.4,12.6-4.2,16.5h-7.3
		c-2.4-8.3-5-16.3-7.6-23.9h7c1.7,6.3,3,11.9,4.1,17c1.1-4.8,2.6-10.5,4.5-17h7.2c1.9,6.5,3.5,12.2,4.5,17
		C729.2,424.8,730.6,419.2,732.3,412.9z"/>
	<path class="st1" d="M765.1,411.6v19c0,2.2-0.7,3.8-2.2,4.9c-1.3,0.9-3.4,1.3-6.5,1.3h-14.4v-16.1h2.6v0.5c0,0.6,0.2,0.8,0.8,0.8
		H758v-4.5h-8.9v2.2h-7.1v-8.1h2.6v0.5c0,0.6,0.2,0.8,0.8,0.8h16.4c0.5,0,0.8-0.3,0.8-0.8v-0.5H765.1z M755.7,432.2
		c1.5,0,2.2-0.7,2.3-2.1v-3.5h-8.9v5.6H755.7z"/>
	<path class="st1" d="M777,412.9v4.2c0.5-0.6,1.2-1.6,2.3-2.9c0.5-0.6,0.8-1.1,1-1.4h6.2c-1.9,2.4-4.5,5.7-7.8,9.9
		c-0.8,1-1.3,1.7-1.7,2.2v11.7h-7.1v-23.9H777z"/>
	<path class="st1" d="M812.6,428.4v2.2c0,2.2-0.7,3.9-2.1,4.8c-1.3,0.9-3.5,1.4-6.6,1.4h-14.4v-25.2h2.6v0.5c0,0.6,0.2,0.8,0.8,0.8
		h16.4c0.5,0,0.8-0.3,0.8-0.8v-0.5h2.6v8.8c0,2.2-0.7,3.9-2.1,4.8c-1.3,0.9-3.5,1.4-6.6,1.4h-7.3v5.6h6.7c1.5,0,2.2-0.7,2.3-2.1
		v-1.8H812.6z M796.5,417.5v4.5h6.7c1.5,0,2.2-0.7,2.3-2.1v-2.5H796.5z"/>
	<path class="st1" d="M848,423v6.3h-10.6c-0.5,1.5-1.2,3.6-2.1,6.2c-0.2,0.6-0.3,1-0.4,1.3h-7.4c2.8-9,6.6-20,11.7-33h10.2
		c5,13.1,8.9,24.1,11.7,33h-7.4c-3.3-10.2-6.5-19.2-9.3-26.9c-1.2,3.2-2.9,8-5.1,14.4h5.5c0.5,0,0.8-0.3,0.8-0.8V423H848z"/>
	<path class="st1" d="M879.3,430.5v-2.4l-15.1-3.8v-12.7h2.6v0.5c0,0.6,0.2,0.8,0.8,0.8h14.7c0.5,0,0.8-0.3,0.8-0.8v-0.5h2.6v8.9
		h-7.4v-3.1h-7v3.4l15.1,3.8v6c0,2.3-0.8,3.9-2.3,4.9c-1.2,0.8-3.1,1.2-5.7,1.1h-14.7v-8.2h7.4v3.7h6.1
		C878.6,432.3,879.3,431.7,879.3,430.5z"/>
	<path class="st1" d="M906.5,430.5v-2.4l-15.1-3.8v-12.7h2.6v0.5c0,0.6,0.2,0.8,0.8,0.8h14.7c0.5,0,0.8-0.3,0.8-0.8v-0.5h2.6v8.9
		h-7.4v-3.1h-7v3.4l15.1,3.8v6c0,2.3-0.8,3.9-2.3,4.9c-1.2,0.8-3.1,1.2-5.7,1.1h-14.7v-8.2h7.4v3.7h6.1
		C905.8,432.3,906.5,431.7,906.5,430.5z"/>
	<path class="st1" d="M934.2,436.8v-18.9h-8.9v18.9h-7.1v-25.2h2.6v0.5c0,0.6,0.2,0.8,0.8,0.8h16.4c0.5,0,0.8-0.3,0.8-0.8v-0.5h2.6
		v25.2H934.2z"/>
	<path class="st1" d="M981.3,411.6v18.5c0,2.5-0.8,4.3-2.5,5.4c-1.3,0.9-3.6,1.3-6.7,1.3h-14.1v-25.2h2.6v0.5c0,0.6,0.2,0.8,0.8,0.8
		h16.4c0.5,0,0.8-0.3,0.8-0.8v-0.5H981.3z M974.2,429.5v-11.8h-9V432h6.3C973.3,432,974.2,431.2,974.2,429.5z"/>
	<path class="st1" d="M1000.7,411.6v6.1h-5.3v19.1h-7.1v-19.1h-4.2v-6.1h2.6v0.5c0,0.6,0.2,0.8,0.8,0.8h0.8v-10.5h2.6v0.5
		c0,0.6,0.2,0.8,0.8,0.8h5.7c0.5,0,0.8-0.3,0.8-0.8v-0.5h2.6v6.1h-5.4v4.4h1.9c0.5,0,0.8-0.3,0.8-0.8v-0.5H1000.7z"/>
	<path class="st1" d="M1036.2,429.8v-4.9l-19.5-6.9v-15.6h2.6v0.5c0,0.6,0.2,0.8,0.8,0.8h19.4c0.5,0,0.8-0.3,0.8-0.8v-0.5h2.6v11.6
		h-7.4v-5.5H1024v5.8l19.5,6.9v8.9c0,2.7-1,4.6-3,5.7c-1.3,0.6-2.9,1-4.9,1H1016v-11.2h7.4v6.4h10.5
		C1035.4,432,1036.2,431.3,1036.2,429.8z"/>
	<path class="st1" d="M1072.4,436.8h-23.6v-33h7.4v27.8h12.7c0.5,0,0.8-0.3,0.8-0.8v-0.5h2.6V436.8z"/>
	<path class="st1" d="M1105,403.8v25.8c0,2.4-0.7,4.2-2.1,5.5c-1.4,1.2-3.5,1.8-6.5,1.8h-19.9v-33h7.4v27.8h11.3
		c1.6,0,2.3-0.8,2.3-2.4v-25.4H1105z"/>
</g>
<g>
	<g>
		<path class="st2" d="M455.7,370.6h116.7c18.2,0,34.6-3.2,43.8-33.4l7.7-24.9c2.8-9.3-4.7-9.8-8-9.9h-1.4c-0.1,0-0.2,0-0.2,0v0h-35
			c0,0,0,0,0,0c-12.9,0.7-14.2,8.6-15.1,10.8c-2,5.6-3.5,7.6-5.7,8.5c-2.5,1-6,0.6-10,0.6h-47.8c-8.7,0-13.9-7.1-11.6-15.8
			l15.4-56.8l0,0c2.3-7.8-5.4-9.2-9.6-9.4h-35.7c-9.1,0.8-12.3,6.3-12.8,7.4l-23.6,75.5C417,341.6,420,370.6,455.7,370.6
			L455.7,370.6z"/>
		<path class="st2" d="M644,245.7l8.8-28.9c6.3-20.6-2.1-33.6-20.3-33.6H499.8c-18.2,0-38.1,15.2-43.8,33.6l-2.2,7.2l0,0
			c0,0,0,0,0,0l-0.1,0.3c-0.3,1.3-0.7,6,10.2,6.7c36.5,0,74.8-0.2,111.3-0.2c1.4,0,6.9,0.2,8.1,0.5c8.7,2.4-9,20.5,4.5,21.4h44.9
			C634.4,252.7,641.9,252.1,644,245.7L644,245.7L644,245.7z"/>
	</g>
	<g>
		<path class="st3" d="M753.2,183.1h117.1c0,0,14.9-1.3,11.8,10.8l-7.7,23.8c0,0-2.7,12.4-19.1,11.8h-97.1c0,0-11.4-1.4-14.4,7.9
			l-3.1,9.9c0,0-3.5,8.7,8.1,7.9h75.3c0,0,30.6-1.5,35.1,27.9c0,0,1.1,10.3-3,18.7c0,0-3.7,12.5-14.6,11.7h-36.9
			c0,0-7.5,0.5-8.3-5.8c0,0-0.7-7.1-11.5-7.7h-68.5c0,0-33.3,0.4-36.8-23.8c0,0-1.9-9.2,0.3-16.6l7.3-29.5
			c8.2-33.2,33.6-46,65.5-46.9L753.2,183.1L753.2,183.1L753.2,183.1z"/>
		<path class="st3" d="M682.3,322.5h152.3c0,0,11.8-0.1,11.6,5.6c0,0-0.1,3.5-3.7,9.7c0,0-8.9,16.9-21.2,24.2c0,0-12.5,9.4-33.8,8.8
			H662.1c0,0-12.2,1.1-9.6-10.7l6.2-23.5c0,0,1.9-7.8,8.4-11.3c0,0,2.7-1.7,8.4-2.4l6.5-0.4L682.3,322.5L682.3,322.5z"/>
	</g>
	<path class="st4" d="M976,183.1h95c0,0,24.9-0.1,33.5,10.9c0,0,11,8.8,7.2,28.1l-6.9,30.3c0,0-4,22.6-24.4,23.6l-33,0
		c0,0-12.8,0.3-9.6-12l6.5-21.1c0,0,3-12.1-8.9-12.8h-46.6c0,0-11.8-1.3-17.2,10.5l-9.2,29c0,0-6.4,14.8,11.8,15.2h106.8
		c0,0,15.2-0.9,10.9,12.4l-16.3,60.7c0,0-0.9,12.2-16.1,12.5h-32.8c0,0-14.6,2.2-9.6-11.9l6-20.6c0,0,2.4-10.3-6.3-10.7H961
		c0,0-11.8-0.2-15.4,10.9l-6.8,19.5c0,0-3.7,13.6-19.4,13h-30.9c0,0-15.8,0.8-9.8-19.1l37.5-128.3c0,0,4.7-21.4,23.1-33
		c0,0,10.1-7.7,35.5-7.1L976,183.1L976,183.1z"/>
	<path class="st4" d="M304.3,312.4c0,0,21.9-23.5,52.1-14.3l48.4,21.9c0,0,4.5,1.6,1.1,6.1L275.1,455.5c0,0-18.4,18.4-56.9,8.2
		l-42.9-12.3c0,0-7.3-1.5-2.4-6.5l0.3-0.4l26.6-26.9c2.5-1.3,4.1,0.7,4.1,0.7l8.8,8.9c3.5,2.8,3.1-1.2,3.1-1.2l2.3-25.9
		c0.3-0.7,0.7-1.3,1-1.8L304.3,312.4L304.3,312.4z"/>
	<path class="st3" d="M261.8,209.9c0,0,2.3-2.1,5.4-4.7c7.2-6.2,20.9-16,40.9-10.8c0.7,0.2,1.3,0.4,2,0.6l18.5,6.1
		c12.9,4.2,25.9,8.5,38.8,12.7c0,0,4.2,1.2,0.7,5.7l-162.2,162c-3.1,1.6-4.9,1.5-4.9,1.5l-26.6,1.6c-4.4,0.1-1.6,2.8-1.6,2.8
		l11.6,11.6c1.1,1.6,0.5,3.2-0.1,4.2L166.3,421c-14.9,14.9-35.3,14.6-56.2,9l-42.9-12.5c0,0-8.3-3.4-3.4-8.3l0.3-0.4l144.5-145.3
		c2.4-1.1,3.9,0.8,3.9,0.8l8.8,8.9c3.5,2.8,3.1-1.2,3.1-1.2l2.3-25.9c0.2-0.5,0.4-0.9,0.6-1.3L261.8,209.9L261.8,209.9z"/>
	<path class="st2" d="M146.4,180.3c0,0,21.9-23.5,52.1-14.3l48.4,21.9c0,0,4.5,1.6,1.1,6.1l-33.8,33.5c-3,1.5-4.7,1.3-4.7,1.3
		l-26.6,1.6c-4.4,0.1-1.6,2.8-1.6,2.8l11.6,11.6c0.9,1.4,0.7,2.7,0.2,3.7l-84.7,84c0,0-20.9,21.1-55.8,6.9L14.2,322
		c0,0-7.3-1.5-2.4-6.5l0.3-0.4L146.4,180.3L146.4,180.3z"/>
</g>
</svg>
